<mxfile host="app.diagrams.net" modified="2023-09-17T06:57:04.214Z" agent="Mozilla/5.0 (Windows NT 10.0; Win64; x64) AppleWebKit/537.36 (KHTML, like Gecko) Chrome/116.0.0.0 Safari/537.36 Edg/116.0.1938.81" version="21.7.5" etag="rOIKBMXeLFR5q7dg1Xc0" type="github">
  <diagram name="Trang-1" id="uWQc67qsMoCVdB3QX5LO">
    <mxGraphModel>
      <root>
        <mxCell id="0" />
        <mxCell id="1" parent="0" />
      </root>
    </mxGraphModel>
  </diagram>
</mxfile>
